/videos/9b8dd0d0-f082-8d3f-35d7-33d5a03648c4/hls1/main/0.ts

{"Protocol":0,"Id":"9b8dd0d0f0828d3f35d733d5a03648c4","Path":"/data/shows/Monarch - Legacy of Monsters {tvdb-422598} {imdb-tt17220216}/Season 1/S01E02.mkv","EncoderPath":null,"EncoderProtocol":null,"Type":0,"Container":"mkv,webm","Size":16803,"Name":"S01E02","IsRemote":false,"ETag":"42eee60f49f316cd3f2c1e6d61cfe638","RunTimeTicks":6009999872,"ReadAtNativeFramerate":false,"IgnoreDts":false,"IgnoreIndex":false,"GenPtsInput":false,"SupportsTranscoding":true,"SupportsDirectStream":true,"SupportsDirectPlay":true,"IsInfiniteStream":false,"RequiresOpening":false,"OpenToken":null,"RequiresClosing":false,"LiveStreamId":null,"BufferMs":null,"RequiresLooping":false,"SupportsProbing":true,"VideoType":0,"IsoType":null,"Video3DFormat":null,"MediaStreams":[{"Codec":"h264","CodecTag":null,"Language":null,"ColorRange":null,"ColorSpace":null,"ColorTransfer":null,"ColorPrimaries":null,"DvVersionMajor":null,"DvVersionMinor":null,"DvProfile":null,"DvLevel":null,"RpuPresentFlag":null,"ElPresentFlag":null,"BlPresentFlag":null,"DvBlSignalCompatibilityId":null,"Comment":null,"TimeBase":"1/1000","CodecTimeBase":null,"Title":null,"VideoRange":"SDR","VideoRangeType":"SDR","VideoDoViTitle":null,"LocalizedUndefined":null,"LocalizedDefault":null,"LocalizedForced":null,"LocalizedExternal":null,"DisplayTitle":"144p H264 SDR","NalLengthSize":"4","IsInterlaced":false,"IsAVC":true,"ChannelLayout":null,"BitRate":223,"BitDepth":8,"RefFrames":1,"PacketLength":null,"Channels":null,"SampleRate":null,"IsDefault":false,"IsForced":false,"Height":96,"Width":128,"AverageFrameRate":1,"RealFrameRate":1,"Profile":"High","Type":1,"AspectRatio":"4:3","Index":0,"Score":null,"IsExternal":false,"DeliveryMethod":null,"DeliveryUrl":null,"IsExternalUrl":null,"IsTextSubtitleStream":false,"SupportsExternalStream":false,"Path":null,"PixelFormat":"yuv420p","Level":10,"IsAnamorphic":null}],"MediaAttachments":[],"Formats":[],"Bitrate":223,"Timestamp":null,"RequiredHttpHeaders":{},"TranscodingUrl":null,"TranscodingSubProtocol":null,"TranscodingContainer":null,"AnalyzeDurationMs":null,"DefaultAudioStreamIndex":null,"DefaultSubtitleStreamIndex":null}

/usr/lib/jellyfin-ffmpeg/ffmpeg -analyzeduration 200M -fflags +genpts -f matroska,webm  -i file:"/data/shows/Monarch - Legacy of Monsters {tvdb-422598} {imdb-tt17220216}/Season 1/S01E02.mkv" -map_metadata -1 -map_chapters -1 -threads 0 -map 0:0 -map -0:a -map -0:s -codec:v:0 copy -bsf:v h264_mp4toannexb -start_at_zero  -copyts -avoid_negative_ts disabled -max_muxing_queue_size 2048 -f hls -max_delay 5000000 -hls_time 6 -hls_segment_type mpegts -start_number 0 -hls_segment_filename "/config/data/transcodes/674e1ff5742363fead44131fc47e9f41%d.ts" -hls_playlist_type vod -hls_list_size 0 -y "/config/data/transcodes/674e1ff5742363fead44131fc47e9f41.m3u8"


ffmpeg version 5.1.3-Jellyfin Copyright (c) 2000-2022 the FFmpeg developers
  built with gcc 11 (Ubuntu 11.4.0-1ubuntu1~22.04)
  configuration: --prefix=/usr/lib/jellyfin-ffmpeg --target-os=linux --extra-libs=-lfftw3f --extra-version=Jellyfin --disable-doc --disable-ffplay --disable-ptx-compression --disable-static --disable-libxcb --disable-sdl2 --disable-xlib --enable-lto --enable-gpl --enable-version3 --enable-shared --enable-gmp --enable-gnutls --enable-chromaprint --enable-libdrm --enable-libass --enable-libfreetype --enable-libfribidi --enable-libfontconfig --enable-libbluray --enable-libmp3lame --enable-libopus --enable-libtheora --enable-libvorbis --enable-libopenmpt --enable-libdav1d --enable-libwebp --enable-libvpx --enable-libx264 --enable-libx265 --enable-libzvbi --enable-libzimg --enable-libfdk-aac --arch=amd64 --enable-libsvtav1 --enable-libshaderc --enable-libplacebo --enable-vulkan --enable-opencl --enable-vaapi --enable-amf --enable-libmfx --enable-ffnvcodec --enable-cuda --enable-cuda-llvm --enable-cuvid --enable-nvdec --enable-nvenc
  libavutil      57. 28.100 / 57. 28.100
  libavcodec     59. 37.100 / 59. 37.100
  libavformat    59. 27.100 / 59. 27.100
  libavdevice    59.  7.100 / 59.  7.100
  libavfilter     8. 44.100 /  8. 44.100
  libswscale      6.  7.100 /  6.  7.100
  libswresample   4.  7.100 /  4.  7.100
  libpostproc    56.  6.100 / 56.  6.100
Input #0, matroska,webm, from 'file:/data/shows/Monarch - Legacy of Monsters {tvdb-422598} {imdb-tt17220216}/Season 1/S01E02.mkv':
  Metadata:
    ENCODER         : Lavf59.27.100
  Duration: 00:10:01.00, start: 0.000000, bitrate: 0 kb/s
  Stream #0:0: Video: h264 (High), yuv420p(progressive), 128x96 [SAR 1:1 DAR 4:3], 1 fps, 1 tbr, 1k tbn
    Metadata:
      ENCODER         : Lavc59.37.100 libx264
      DURATION        : 00:10:01.000000000
Output #0, hls, to '/config/data/transcodes/674e1ff5742363fead44131fc47e9f41.m3u8':
  Metadata:
    encoder         : Lavf59.27.100
  Stream #0:0: Video: h264 (High), yuv420p(progressive), 128x96 [SAR 1:1 DAR 4:3], q=2-31, 1 fps, 1 tbr, 90k tbn
Stream mapping:
  Stream #0:0 -> #0:0 (copy)
Press [q] to stop, [?] for help
frame=    1 fps=0.0 q=-1.0 size=N/A time=-00:00:01.00 bitrate=N/A speed=N/A    
[hls @ 0x5565f2de41c0] Opening '/config/data/transcodes/674e1ff5742363fead44131fc47e9f410.ts' for writing
[hls @ 0x5565f2de41c0] Opening '/config/data/transcodes/674e1ff5742363fead44131fc47e9f411.ts' for writing
[hls @ 0x5565f2de41c0] Opening '/config/data/transcodes/674e1ff5742363fead44131fc47e9f412.ts' for writing
frame=  601 fps=0.0 q=-1.0 Lsize=N/A time=00:00:00.00 bitrate=N/A speed=   0x    
video:11kB audio:0kB subtitle:0kB other streams:0kB global headers:0kB muxing overhead: unknown